<?xml version="1.0" standalone="no"?>
<!DOCTYPE svg PUBLIC "-//W3C//DTD SVG 20010904//EN"
 "http://www.w3.org/TR/2001/REC-SVG-20010904/DTD/svg10.dtd">
<svg version="1.0" xmlns="http://www.w3.org/2000/svg"
 width="500.000000pt" height="500.000000pt" viewBox="0 0 500.000000 500.000000"
 preserveAspectRatio="xMidYMid meet">

<g transform="translate(0.000000,500.000000) scale(0.100000,-0.100000)"
fill="#ffff" stroke="none">
<path d="M1024 4552 c-84 -29 -147 -92 -176 -176 -15 -44 -17 -90 -18 -333 0
-195 4 -290 12 -308 13 -29 53 -43 77 -28 37 23 41 51 41 339 0 275 0 282 23
314 33 49 70 73 129 81 69 10 2427 10 2496 0 56 -8 93 -30 126 -75 20 -26 21
-44 26 -326 5 -275 6 -300 24 -319 26 -29 60 -26 86 6 21 27 21 34 18 328 -3
291 -4 301 -26 347 -13 26 -45 67 -72 92 -87 81 11 76 -1434 76 -1196 -1
-1284 -2 -1332 -18z m2657 -27 c62 -21 115 -67 147 -129 l27 -51 3 -296 c3
-258 2 -297 -12 -308 -9 -7 -23 -11 -31 -7 -13 5 -15 43 -15 270 0 317 -6 354
-64 412 -24 25 -58 46 -81 53 -57 15 -2533 15 -2590 0 -52 -15 -119 -82 -134
-134 -7 -25 -11 -145 -11 -318 0 -239 -2 -278 -15 -283 -8 -4 -22 -1 -30 6
-13 10 -15 56 -15 289 0 329 5 357 79 431 85 85 -26 78 1417 79 1124 1 1286
-1 1325 -14z"/>
<path d="M1520 4370 c-6 -12 -8 -29 -5 -40 4 -12 0 -20 -12 -23 -12 -3 -9 -5
8 -6 23 -1 28 -7 38 -45 17 -70 15 -81 -11 -56 -24 22 -38 26 -38 10 0 -5 7
-10 15 -10 8 0 19 -9 25 -20 6 -11 15 -18 21 -15 5 4 9 -1 9 -9 0 -8 -9 -18
-20 -21 -27 -9 -25 -31 6 -72 22 -30 26 -61 4 -48 -20 12 30 -213 57 -254 13
-20 21 -23 57 -18 40 6 151 36 287 77 56 17 68 25 72 45 2 14 1 25 -2 25 -3 0
-22 15 -42 33 -71 65 -244 170 -345 208 -35 14 -42 22 -54 62 -7 26 -10 58 -8
72 3 14 2 25 -3 25 -4 0 -1 12 7 28 19 36 18 49 -5 62 -30 15 -49 12 -61 -10z
m120 -391 c0 -6 -4 -7 -10 -4 -5 3 -10 11 -10 16 0 6 5 7 10 4 6 -3 10 -11 10
-16z m20 -79 c0 -13 -1 -13 -10 0 -5 8 -10 22 -10 30 0 13 1 13 10 0 5 -8 10
-22 10 -30z"/>
<path d="M1480 4269 c0 -5 -5 -7 -11 -3 -7 4 -10 1 -7 -6 7 -22 24 -22 25 0 1
11 0 20 -3 20 -2 0 -4 -5 -4 -11z"/>
<path d="M3213 4250 c-11 -16 -10 -18 2 -14 8 4 15 12 15 20 0 19 -3 18 -17
-6z"/>
<path d="M1647 4253 c-9 -9 41 -33 67 -32 17 1 16 2 -7 9 -16 5 -34 13 -41 19
-7 6 -16 8 -19 4z"/>
<path d="M3155 4170 c-3 -5 -36 -29 -73 -54 -91 -59 -212 -166 -263 -232 -40
-52 -43 -54 -88 -54 -25 0 -56 3 -68 6 -26 7 -31 24 -8 24 8 0 15 5 15 10 0
17 -18 11 -34 -11 l-14 -21 -11 20 c-24 44 -81 35 -81 -13 0 -29 24 -49 50
-42 13 3 18 1 14 -6 -5 -8 -2 -7 7 1 15 14 97 16 119 2 11 -7 11 -10 2 -10 -7
0 -10 -5 -6 -12 5 -8 11 -6 19 5 17 23 24 21 35 -8 11 -28 18 -29 74 -14 27 8
41 8 49 0 8 -8 7 -11 -3 -12 -43 -3 69 -19 162 -24 123 -6 121 -7 131 85 6 47
11 289 8 328 -1 6 -8 12 -17 12 -10 0 -14 6 -10 15 6 17 0 20 -9 5z m-205
-360 c0 -5 -7 -10 -16 -10 -8 0 -12 5 -9 10 3 6 10 10 16 10 5 0 9 -4 9 -10z
m83 -7 c-7 -2 -21 -2 -30 0 -10 3 -4 5 12 5 17 0 24 -2 18 -5z"/>
<path d="M1487 4149 c4 -13 8 -18 11 -10 2 7 -1 18 -6 23 -8 8 -9 4 -5 -13z"/>
<path d="M2919 4133 l-24 -28 30 25 c17 14 32 26 34 28 2 1 0 2 -6 2 -5 0 -20
-12 -34 -27z"/>
<path d="M1957 4079 c7 -7 15 -10 18 -7 3 3 -2 9 -12 12 -14 6 -15 5 -6 -5z"/>
<path d="M2839 4063 l-24 -28 28 24 c25 23 32 31 24 31 -2 0 -14 -12 -28 -27z"/>
<path d="M1500 4065 c0 -8 5 -15 10 -15 6 0 10 7 10 15 0 8 -4 15 -10 15 -5 0
-10 -7 -10 -15z"/>
<path d="M3221 4054 c0 -11 3 -14 6 -6 3 7 2 16 -1 19 -3 4 -6 -2 -5 -13z"/>
<path d="M1516 4018 c-4 -9 -2 -26 4 -37 6 -12 8 -25 5 -30 -8 -13 6 -42 16
-35 6 3 7 15 3 27 -4 12 -10 38 -14 57 -5 26 -9 31 -14 18z"/>
<path d="M2731 3964 c-28 -32 -49 -59 -46 -62 7 -7 55 38 55 52 0 5 12 23 27
38 15 15 24 28 21 28 -3 0 -28 -25 -57 -56z"/>
<path d="M3222 3960 c0 -19 2 -27 5 -17 2 9 2 25 0 35 -3 9 -5 1 -5 -18z"/>
<path d="M1541 3858 c0 -13 4 -32 9 -43 13 -32 23 5 11 38 -13 33 -21 35 -20
5z"/>
<path d="M2128 3848 c5 -5 16 -8 23 -6 8 3 3 7 -10 11 -17 4 -21 3 -13 -5z"/>
<path d="M2018 3803 c7 -3 16 -2 19 1 4 3 -2 6 -13 5 -11 0 -14 -3 -6 -6z"/>
<path d="M2686 3771 c-4 -7 -5 -15 -2 -18 9 -9 19 4 14 18 -4 11 -6 11 -12 0z"/>
<path d="M3211 3764 c0 -11 3 -14 6 -6 3 7 2 16 -1 19 -3 4 -6 -2 -5 -13z"/>
<path d="M1580 3763 c0 -6 8 -17 18 -24 16 -13 16 -13 2 6 -8 11 -16 22 -17
24 -2 2 -3 0 -3 -6z"/>
<path d="M1848 3753 c6 -2 18 -2 25 0 6 3 1 5 -13 5 -14 0 -19 -2 -12 -5z"/>
<path d="M2630 3740 c-9 -6 -10 -10 -3 -10 6 0 15 5 18 10 8 12 4 12 -15 0z"/>
<path d="M3176 3722 l-19 -27 24 22 c12 12 21 24 18 27 -2 2 -13 -8 -23 -22z"/>
<path d="M2723 3723 c9 -2 23 -2 30 0 6 3 -1 5 -18 5 -16 0 -22 -2 -12 -5z"/>
<path d="M2810 3720 c-12 -8 -11 -10 8 -10 12 0 22 5 22 10 0 13 -11 13 -30 0z"/>
<path d="M2855 3720 c-6 -10 13 -16 80 -24 45 -6 48 -5 32 8 -11 8 -28 13 -38
11 -11 -2 -31 0 -44 5 -14 5 -27 6 -30 0z"/>
<path d="M1658 3708 c5 -5 16 -8 23 -6 8 3 3 7 -10 11 -17 4 -21 3 -13 -5z"/>
<path d="M1708 3713 c6 -2 18 -2 25 0 6 3 1 5 -13 5 -14 0 -19 -2 -12 -5z"/>
<path d="M3015 3690 c-4 -6 10 -10 35 -10 25 0 39 4 35 10 -3 6 -19 10 -35 10
-16 0 -32 -4 -35 -10z"/>
<path d="M1521 3640 c-18 -29 -26 -48 -19 -44 7 5 17 9 21 9 9 0 39 76 33 83
-2 1 -18 -20 -35 -48z"/>
<path d="M3161 3680 c-1 -15 83 -94 93 -88 2 2 15 -6 28 -17 14 -11 2 1 -26
27 -28 26 -57 48 -64 48 -7 0 -17 10 -22 23 -5 13 -9 16 -9 7z"/>
<path d="M3285 3630 c10 -11 20 -20 23 -20 3 0 -3 9 -13 20 -10 11 -20 20 -23
20 -3 0 3 -9 13 -20z"/>
<path d="M3391 3508 c23 -29 46 -55 52 -57 6 -2 -11 21 -37 52 -61 72 -70 74
-15 5z"/>
<path d="M3280 3546 c0 -2 8 -10 18 -17 15 -13 16 -12 3 4 -13 16 -21 21 -21
13z"/>
<path d="M3360 3485 c13 -14 26 -25 28 -25 3 0 -5 11 -18 25 -13 14 -26 25
-28 25 -3 0 5 -11 18 -25z"/>
<path d="M1464 3440 c-15 -22 -25 -42 -23 -45 3 -2 17 16 32 40 33 56 27 59
-9 5z"/>
<path d="M3350 3466 c0 -2 8 -10 18 -17 15 -13 16 -12 3 4 -13 16 -21 21 -21
13z"/>
<path d="M3801 3412 c-8 -14 -6 -19 5 -19 8 0 13 6 10 13 -3 7 0 15 7 18 9 3
9 5 0 5 -7 1 -17 -7 -22 -17z"/>
<path d="M3438 3400 c18 -24 15 -35 -5 -19 -10 7 -3 -3 15 -22 17 -19 32 -40
32 -47 0 -6 7 -9 15 -6 18 7 9 26 -37 75 -18 19 -27 28 -20 19z"/>
<path d="M1340 3343 c-11 -19 -20 -39 -20 -45 0 -15 31 15 52 50 14 24 15 29
3 29 -8 0 -24 -16 -35 -34z"/>
<path d="M3770 3365 c-7 -8 -9 -15 -4 -15 4 0 0 -6 -11 -13 -10 -8 -14 -16 -9
-19 5 -3 17 3 27 14 9 10 14 18 11 18 -4 0 -1 7 6 15 7 8 8 15 2 15 -5 0 -15
-7 -22 -15z"/>
<path d="M1037 3331 c-6 -23 10 -51 29 -51 8 0 13 -4 9 -9 -7 -12 31 -34 48
-28 7 3 0 8 -15 12 -16 4 -25 11 -22 17 3 5 -4 12 -16 15 -17 5 -21 12 -18 34
5 32 -7 40 -15 10z"/>
<path d="M1136 3336 c3 -8 13 -17 22 -21 13 -5 13 -2 -3 15 -21 24 -26 25 -19
6z"/>
<path d="M1100 3336 c0 -2 7 -7 16 -10 8 -3 12 -2 9 4 -6 10 -25 14 -25 6z"/>
<path d="M1180 3327 c0 -10 40 -49 48 -45 5 1 -4 13 -20 26 -15 13 -28 22 -28
19z"/>
<path d="M3536 3305 c-3 -9 -10 -13 -16 -10 -5 3 -10 1 -10 -4 0 -17 30 -13
37 4 3 9 3 18 0 21 -2 3 -7 -2 -11 -11z"/>
<path d="M2241 3286 c-17 -5 -31 -12 -31 -16 0 -5 -16 -7 -36 -5 -26 3 -62 -9
-137 -44 -56 -27 -110 -51 -119 -54 -11 -4 -18 -17 -18 -31 0 -13 -7 -26 -15
-30 -9 -3 -15 0 -15 9 0 8 -3 15 -8 15 -11 0 -92 -88 -92 -100 0 -5 -6 -10
-13 -10 -19 0 -47 -37 -54 -71 -3 -16 -12 -29 -19 -29 -8 0 -14 -7 -14 -15 0
-8 -4 -15 -8 -15 -8 0 -52 -96 -52 -113 0 -4 7 -7 16 -7 8 0 13 -4 10 -9 -3
-5 -14 -7 -24 -4 -12 3 -18 -2 -18 -14 -1 -10 -4 -43 -9 -73 -12 -83 -6 -374
8 -397 9 -14 92 -7 154 12 20 6 26 1 42 -36 24 -52 18 -68 -13 -38 -17 16 -37
23 -71 25 -55 2 -40 -13 21 -21 21 -2 41 -10 45 -17 4 -7 18 -13 31 -14 13 -1
31 -5 42 -9 21 -9 72 6 68 20 -2 6 -10 9 -18 7 -26 -5 -14 15 16 28 36 15 49
7 32 -20 -14 -23 2 -37 23 -20 17 14 20 56 5 65 -15 9 -12 35 4 35 8 0 21 -6
28 -13 15 -15 48 -29 48 -20 0 3 -8 12 -17 19 -24 17 -10 28 17 14 14 -8 26
-8 32 -2 6 6 -4 16 -29 29 -23 12 -40 29 -43 44 -3 13 -10 24 -15 23 -37 -3
-95 -18 -95 -25 0 -11 -79 -49 -103 -49 -25 0 -57 18 -57 33 0 12 60 39 175
81 33 11 62 24 65 27 3 4 24 16 47 28 56 28 65 11 19 -37 -37 -37 -44 -52 -26
-52 6 0 10 6 10 13 0 24 80 12 147 -22 54 -28 64 -30 82 -19 32 20 25 26 -24
26 -25 -1 -48 1 -51 4 -3 3 5 17 18 30 39 42 97 65 84 33 -3 -8 -9 -22 -12
-30 -4 -9 -1 -15 8 -15 8 0 20 16 27 35 15 43 57 67 103 59 31 -5 32 -5 14 10
-11 9 -24 16 -28 16 -18 0 24 48 47 54 55 14 81 72 50 112 -21 28 -19 33 22
51 21 8 48 26 60 39 12 13 29 24 38 24 24 0 76 30 70 39 -2 5 7 12 23 16 33 8
54 24 46 36 -2 5 7 11 21 15 13 3 22 10 20 15 -3 4 5 15 18 24 42 27 51 55 32
101 -19 48 -81 110 -119 120 -15 3 -30 12 -33 19 -2 7 -16 16 -30 20 -14 3
-37 14 -52 24 -40 29 -79 35 -84 14 -3 -13 -5 -12 -6 5 0 13 -7 22 -13 21 -7
-1 -38 1 -68 5 -83 11 -164 12 -199 2z m349 -85 c0 -5 -6 -14 -14 -20 -12 -10
-13 -8 -9 8 5 21 23 30 23 12z m-385 -41 c3 -5 2 -10 -4 -10 -5 0 -13 5 -16
10 -3 6 -2 10 4 10 5 0 13 -4 16 -10z m-185 -70 c0 -5 -7 -7 -15 -4 -8 4 -15
8 -15 10 0 2 7 4 15 4 8 0 15 -4 15 -10z m315 -60 c3 -5 1 -10 -4 -10 -6 0
-11 5 -11 10 0 6 2 10 4 10 3 0 8 -4 11 -10z m-345 -50 c13 -8 13 -10 -2 -10
-9 0 -20 5 -23 10 -8 13 5 13 25 0z m150 -80 c0 -5 -4 -10 -9 -10 -6 0 -13 5
-16 10 -3 6 1 10 9 10 9 0 16 -4 16 -10z m-410 -70 c0 -5 -5 -10 -11 -10 -5 0
-7 5 -4 10 3 6 8 10 11 10 2 0 4 -4 4 -10z m251 -16 c12 -14 11 -16 -5 -13
-11 2 -21 10 -24 17 -5 17 13 15 29 -4z m168 -249 c-10 -9 -272 -126 -275
-122 -2 2 56 31 129 65 120 55 159 70 146 57z m27 -30 c-21 -16 -32 -13 -21 4
3 6 14 11 23 11 15 -1 15 -2 -2 -15z"/>
<path d="M3680 3253 c-23 -27 -49 -51 -58 -54 -10 -3 -17 -10 -17 -15 0 -18
-16 -33 -29 -28 -7 3 -19 -3 -27 -13 -13 -16 -12 -17 4 -4 9 8 20 11 24 8 7
-8 113 82 113 96 0 6 12 21 28 34 15 12 22 22 15 23 -6 0 -30 -21 -53 -47z"/>
<path d="M1302 3275 c3 -21 48 -35 48 -15 0 6 -6 10 -12 7 -7 -2 -19 3 -26 12
-11 14 -12 14 -10 -4z"/>
<path d="M3585 3280 c-3 -6 1 -7 9 -4 18 7 21 14 7 14 -6 0 -13 -4 -16 -10z"/>
<path d="M1371 3254 c0 -11 3 -14 6 -6 3 7 2 16 -1 19 -3 4 -6 -2 -5 -13z"/>
<path d="M3559 3233 c-13 -16 -12 -17 4 -4 16 13 21 21 13 21 -2 0 -10 -8 -17
-17z"/>
<path d="M3455 3220 c-3 -5 -3 -10 1 -10 4 0 -1 -7 -12 -15 -17 -13 -17 -14
-1 -15 9 0 17 5 17 10 0 6 12 10 28 10 20 0 23 3 13 9 -8 5 -21 7 -29 3 -10
-3 -13 -1 -8 6 4 7 5 12 2 12 -3 0 -8 -4 -11 -10z"/>
<path d="M1133 3213 c10 -9 87 -43 87 -38 0 5 -76 45 -86 45 -4 0 -4 -3 -1 -7z"/>
<path d="M1320 3201 c0 -6 4 -13 10 -16 6 -3 7 1 4 9 -7 18 -14 21 -14 7z"/>
<path d="M1230 3158 c0 -18 58 -58 84 -58 10 0 32 -11 50 -25 30 -23 120 -45
100 -25 -6 6 -25 11 -43 13 -18 2 -36 8 -39 14 -4 5 -34 22 -67 38 -33 15 -65
35 -72 44 -11 15 -12 15 -13 -1z"/>
<path d="M3409 3153 c-13 -15 -12 -15 9 -4 23 12 28 21 13 21 -5 0 -15 -7 -22
-17z"/>
<path d="M3519 3103 c-13 -16 -12 -17 4 -4 16 13 21 21 13 21 -2 0 -10 -8 -17
-17z"/>
<path d="M3483 3098 c-23 -30 -24 -41 -2 -21 12 12 20 25 17 28 -3 3 -10 0
-15 -7z"/>
<path d="M3430 3060 c-6 -11 -8 -20 -6 -20 3 0 10 9 16 20 6 11 8 20 6 20 -3
0 -10 -9 -16 -20z"/>
<path d="M3370 3060 c0 -5 5 -10 11 -10 5 0 7 5 4 10 -3 6 -8 10 -11 10 -2 0
-4 -4 -4 -10z"/>
<path d="M1495 3040 c3 -5 -1 -11 -7 -13 -9 -4 -8 -6 2 -6 8 0 21 3 28 8 10 6
9 10 -7 14 -12 3 -19 1 -16 -3z"/>
<path d="M2870 2981 c-22 -21 -40 -43 -40 -49 0 -5 -7 -13 -16 -16 -13 -5 -14
-9 -4 -21 7 -8 10 -22 6 -30 -7 -18 -4 -19 38 -1 39 16 84 59 97 93 13 35 12
38 -16 51 -23 11 -29 8 -65 -27z"/>
<path d="M2905 2760 c-7 -11 3 -16 48 -24 30 -6 37 -4 37 9 0 8 -3 15 -7 16
-40 6 -74 5 -78 -1z"/>
<path d="M2655 2730 c-3 -5 -1 -10 4 -10 6 0 11 5 11 10 0 6 -2 10 -4 10 -3 0
-8 -4 -11 -10z"/>
<path d="M2820 2715 c0 -8 7 -15 15 -15 24 0 17 -19 -10 -26 -35 -9 -53 -33
-34 -45 8 -5 22 -7 32 -5 9 2 14 0 11 -5 -9 -15 6 -49 21 -49 11 0 12 6 5 26
-9 22 -8 25 5 20 8 -3 15 -1 15 4 0 5 -9 11 -19 15 -20 6 -19 32 2 46 9 7 -21
49 -35 49 -5 0 -8 -7 -8 -15z"/>
<path d="M2650 2691 c0 -5 5 -22 10 -37 7 -18 14 -24 21 -17 6 6 6 19 0 36
-10 26 -31 38 -31 18z"/>
<path d="M3093 2683 c-7 -3 -13 -11 -13 -18 0 -7 -9 -15 -20 -18 -11 -3 -20
-10 -20 -16 0 -6 9 -11 20 -11 11 0 20 6 20 14 0 8 9 18 20 21 20 6 26 20 13
28 -5 2 -14 2 -20 0z"/>
<path d="M2550 2654 c0 -8 -4 -13 -9 -9 -5 3 -12 1 -15 -4 -3 -5 10 -18 29
-30 41 -24 48 -17 30 27 -15 33 -35 43 -35 16z"/>
<path d="M2900 2660 c0 -5 5 -10 10 -10 6 0 10 5 10 10 0 6 -4 10 -10 10 -5 0
-10 -4 -10 -10z"/>
<path d="M2920 2630 c0 -5 4 -10 9 -10 6 0 13 5 16 10 3 6 -1 10 -9 10 -9 0
-16 -4 -16 -10z"/>
<path d="M2744 2606 c-8 -20 25 -86 42 -86 18 0 18 -1 -6 54 -22 49 -28 54
-36 32z"/>
<path d="M2607 2591 c-3 -14 -11 -17 -31 -14 -28 6 -34 -9 -16 -37 9 -13 12
-12 26 5 8 11 22 19 30 17 8 -2 14 1 14 7 0 5 3 16 6 25 4 10 1 16 -9 16 -8 0
-17 -8 -20 -19z"/>
<path d="M2500 2570 c0 -5 5 -10 10 -10 6 0 10 5 10 10 0 6 -4 10 -10 10 -5 0
-10 -4 -10 -10z"/>
<path d="M2875 2560 c-7 -12 18 -24 37 -18 8 3 5 9 -9 16 -14 8 -24 9 -28 2z"/>
<path d="M2960 2550 c0 -11 -4 -20 -10 -20 -5 0 -10 -7 -10 -15 0 -8 -4 -15
-9 -15 -5 0 -13 -10 -17 -22 -10 -31 -35 -49 -61 -43 -24 6 -41 -11 -25 -27
15 -15 95 15 107 41 5 11 13 21 17 21 13 0 50 71 44 85 -8 22 -36 18 -36 -5z"/>
<path d="M2630 2536 c0 -9 5 -16 10 -16 6 0 10 4 10 9 0 6 -4 13 -10 16 -5 3
-10 -1 -10 -9z"/>
<path d="M3010 2488 c-14 -16 -26 -33 -28 -38 -2 -6 -10 -10 -19 -10 -8 0 -13
-6 -11 -12 6 -18 -48 -101 -104 -160 -10 -10 -18 -24 -18 -31 0 -7 -4 -17 -8
-22 -5 -6 -19 -42 -32 -82 -21 -61 -29 -73 -58 -87 -25 -12 -38 -14 -47 -6 -9
8 -15 8 -20 1 -7 -13 -105 -10 -105 2 0 5 -6 4 -14 -2 -8 -6 -18 -11 -22 -9
-21 5 -141 -16 -167 -29 -15 -7 -31 -12 -35 -10 -4 3 -29 1 -57 -4 -50 -9 -88
-16 -135 -23 -14 -2 -68 -7 -120 -11 -52 -4 -97 -12 -99 -17 -1 -5 -27 -20
-57 -33 -30 -13 -54 -29 -54 -35 0 -21 43 -95 68 -117 24 -22 24 -24 8 -42
-17 -19 -17 -22 10 -83 15 -35 38 -73 51 -86 13 -13 23 -27 23 -32 0 -16 52
-62 84 -73 17 -6 36 -18 43 -26 9 -13 34 -16 140 -15 70 1 143 4 161 8 17 3
44 8 60 10 37 6 101 31 282 114 183 83 299 140 320 158 8 7 30 26 48 41 118
98 216 243 215 316 -1 65 -6 84 -56 195 -47 104 -52 113 -76 110 -20 -2 -29 4
-40 27 -8 17 -18 32 -23 33 -4 2 -8 9 -8 16 0 25 -30 73 -52 83 -20 9 -27 6
-48 -19z m-455 -678 c-3 -5 -12 -10 -18 -10 -7 0 -6 4 3 10 19 12 23 12 15 0z
m174 -254 c-8 -9 -99 -45 -99 -40 0 3 19 13 43 24 40 18 65 25 56 16z m-119
-56 c-8 -5 -19 -10 -25 -10 -5 0 -3 5 5 10 8 5 20 10 25 10 6 0 3 -5 -5 -10z"/>
<path d="M2454 2479 c10 -6 39 -12 65 -13 46 -1 100 -29 101 -53 0 -6 -20 -19
-45 -29 -25 -9 -45 -22 -45 -28 0 -11 -80 -56 -99 -56 -5 0 -7 9 -4 20 6 24
-12 27 -21 4 -10 -25 -7 -32 12 -36 11 -3 0 -13 -37 -32 -30 -16 -62 -25 -74
-22 -11 2 -29 -2 -42 -10 -12 -8 -37 -17 -56 -20 -50 -8 -101 -14 -121 -15
-10 0 -18 -4 -18 -10 0 -5 -12 -9 -26 -9 -26 0 -63 -34 -64 -57 0 -25 28 -12
44 20 l16 32 0 -45 0 -45 68 2 c110 5 175 12 202 23 14 5 32 9 40 8 22 -3 133
53 148 74 7 10 34 24 60 31 26 8 47 20 47 28 0 7 15 17 33 23 17 5 32 15 32
23 0 7 12 18 26 23 32 13 30 13 48 -6 19 -19 76 -10 76 12 0 17 -5 17 -31 4
-16 -9 -25 -4 -55 27 -19 21 -44 47 -55 58 -10 12 -19 25 -19 30 0 24 -67 47
-145 51 -62 3 -76 2 -61 -7z"/>
<path d="M2397 2444 c-8 -8 1 -24 14 -24 5 0 9 7 9 15 0 15 -12 20 -23 9z"/>
<path d="M2397 2404 c-8 -9 11 -44 23 -44 6 0 10 6 10 14 0 16 -24 38 -33 30z"/>
<path d="M2827 2360 c-3 -11 -2 -20 3 -20 12 0 21 28 11 35 -5 2 -11 -4 -14
-15z"/>
<path d="M2102 2338 c-9 -9 -5 -17 14 -35 31 -28 41 -23 28 14 -11 31 -25 38
-42 21z"/>
<path d="M2154 2269 c-10 -16 8 -29 51 -36 36 -6 37 -5 25 16 -6 13 -18 20
-25 17 -8 -3 -17 -1 -20 4 -8 13 -22 13 -31 -1z"/>
<path d="M2110 2260 c0 -5 5 -10 10 -10 6 0 10 5 10 10 0 6 -4 10 -10 10 -5 0
-10 -4 -10 -10z"/>
<path d="M2731 2188 c-38 -81 -49 -122 -30 -116 8 3 17 16 21 29 25 90 34 113
45 125 15 15 17 24 4 24 -6 0 -23 -28 -40 -62z"/>
<path d="M1596 2201 c-12 -14 -14 -21 -6 -26 17 -10 47 22 34 35 -7 7 -16 4
-28 -9z"/>
<path d="M1550 2171 c0 -6 5 -13 10 -16 6 -3 10 1 10 9 0 9 -4 16 -10 16 -5 0
-10 -4 -10 -9z"/>
<path d="M1833 2141 c6 -24 -30 -36 -67 -21 -31 11 -45 -4 -17 -19 60 -32 69
-32 91 4 21 34 20 55 -2 55 -6 0 -8 -9 -5 -19z"/>
<path d="M1550 2126 c0 -16 26 -46 41 -46 14 0 10 13 -10 38 -22 26 -31 28
-31 8z"/>
<path d="M1573 2062 c-16 -10 16 -102 34 -102 17 0 16 19 -2 53 -12 24 -12 29
0 34 8 3 15 9 15 14 0 11 -30 12 -47 1z"/>
<path d="M1666 2057 c5 -14 54 -30 63 -21 8 8 -13 22 -42 29 -22 6 -26 4 -21
-8z"/>
<path d="M1755 2049 c-4 -6 -4 -13 -1 -16 8 -8 36 5 36 17 0 13 -27 13 -35 -1z"/>
<path d="M1945 2020 c-3 -5 -1 -10 4 -10 6 0 11 5 11 10 0 6 -2 10 -4 10 -3 0
-8 -4 -11 -10z"/>
<path d="M1885 2010 c-3 -5 1 -10 9 -10 9 0 16 5 16 10 0 6 -4 10 -9 10 -6 0
-13 -4 -16 -10z"/>
<path d="M1725 1940 c-3 -5 3 -10 14 -10 12 0 21 5 21 10 0 6 -6 10 -14 10 -8
0 -18 -4 -21 -10z"/>
<path d="M855 1885 l-25 -24 0 -273 c0 -302 8 -362 58 -428 34 -45 57 -65 107
-93 l40 -22 1325 0 1325 0 41 22 c63 34 97 66 129 125 l30 53 3 295 c2 162 1
304 -3 317 -7 30 -48 56 -75 48 -41 -13 -45 -37 -50 -345 -5 -293 -5 -295 -29
-327 -13 -18 -40 -40 -60 -50 -34 -17 -109 -18 -1289 -21 -846 -1 -1266 1
-1292 8 -42 11 -93 49 -113 84 -8 15 -13 110 -17 319 l-5 299 -24 19 c-31 25
-47 24 -76 -6z m52 -13 c8 -5 13 -90 15 -303 l3 -296 30 -48 c20 -31 46 -56
75 -71 l45 -24 1285 0 1285 0 45 24 c29 15 55 40 75 71 l30 48 3 298 c3 259 5
298 19 303 40 16 43 -5 43 -285 0 -156 -5 -289 -11 -319 -14 -64 -60 -125
-124 -165 l-48 -30 -1316 0 -1316 0 -46 27 c-26 15 -59 42 -74 60 -58 68 -59
79 -63 390 -4 312 1 348 45 320z"/>
<path d="M193 744 c-10 -4 -13 -46 -13 -160 l0 -155 48 3 47 3 5 50 5 50 40 0
c40 0 40 0 43 43 l3 42 -45 0 c-41 0 -46 2 -46 23 0 20 4 22 57 22 l58 0 0 40
0 40 -95 2 c-52 1 -101 -1 -107 -3z"/>
<path d="M495 741 c-45 -19 -60 -49 -64 -134 -7 -153 19 -182 154 -175 107 5
119 18 123 144 5 112 -7 148 -50 163 -36 13 -134 13 -163 2z m107 -151 c2 -58
0 -71 -13 -75 -38 -12 -49 4 -49 76 l0 69 29 0 c29 0 29 0 33 -70z"/>
<path d="M798 734 c-41 -22 -48 -43 -48 -154 0 -94 2 -103 25 -125 22 -22 32
-25 105 -25 77 0 83 2 111 29 28 29 29 32 29 129 0 117 -3 128 -41 147 -36 19
-146 19 -181 -1z m120 -146 c3 -71 -9 -89 -49 -68 -16 9 -19 22 -19 74 0 34 3
65 6 68 3 3 17 3 32 -1 25 -7 27 -11 30 -73z"/>
<path d="M1083 739 c-9 -9 -13 -56 -13 -161 l0 -148 90 0 c105 0 155 16 170
55 6 15 10 66 10 115 0 79 -3 92 -23 116 -22 25 -30 27 -123 31 -73 4 -102 2
-111 -8z m149 -93 c4 -6 8 -37 8 -68 l0 -58 -35 0 -35 0 0 74 0 73 28 -5 c15
-3 30 -10 34 -16z"/>
<path d="M1443 743 c-39 -8 -63 -50 -63 -109 0 -62 15 -77 90 -89 73 -12 70
-20 -10 -25 l-75 -5 -3 -42 -3 -43 79 0 c88 0 138 13 152 40 6 10 10 43 10 74
0 45 -4 58 -22 70 -12 9 -34 16 -48 16 -35 0 -70 11 -70 21 0 4 28 9 63 11
l62 3 0 40 0 40 -70 1 c-38 1 -80 0 -92 -3z"/>
<path d="M1818 733 c-9 -10 -28 -52 -43 -93 -20 -59 -25 -90 -23 -140 l3 -65
45 0 c45 0 45 0 48 38 3 35 5 37 37 37 32 0 34 -2 37 -37 3 -36 5 -38 41 -41
55 -5 67 10 67 80 0 58 -38 197 -62 225 -17 21 -131 17 -150 -4z m82 -98 c0
-7 7 -21 16 -29 14 -15 12 -16 -20 -16 -20 0 -36 2 -36 4 0 1 5 17 11 34 11
31 29 35 29 7z"/>
<path d="M2081 736 c-8 -9 -11 -60 -9 -157 l3 -144 45 0 45 0 5 80 c4 59 8 75
15 60 4 -11 19 -34 32 -51 13 -17 23 -45 23 -63 0 -32 0 -32 48 -29 l47 3 0
155 0 155 -33 3 c-50 5 -65 -13 -58 -67 l6 -45 -51 57 c-53 59 -92 74 -118 43z"/>
<path d="M2407 737 c-16 -11 -17 -30 -15 -157 l3 -145 107 0 c99 0 108 2 132
24 25 23 26 29 26 131 0 122 -7 137 -65 150 -58 14 -168 12 -188 -3z m151
-150 l3 -67 -31 0 -30 0 0 74 0 74 28 -7 c26 -7 27 -11 30 -74z"/>
<path d="M2823 743 c-10 -3 -13 -45 -13 -159 l0 -154 90 0 c155 0 180 24 180
169 0 91 -14 122 -60 138 -34 12 -173 16 -197 6z m147 -156 l5 -67 -32 0 -33
0 0 74 0 74 28 -7 c25 -7 27 -11 32 -74z"/>
<path d="M3137 738 c-16 -12 -17 -29 -15 -158 l3 -145 38 -3 c51 -4 67 11 67
63 l0 42 33 -6 c30 -6 32 -10 35 -54 l3 -48 47 3 47 3 3 72 c2 62 0 74 -16 84
-15 9 -18 21 -14 63 6 79 -6 88 -119 93 -69 4 -99 1 -112 -9z m136 -98 c6 -23
0 -30 -25 -30 -13 0 -18 8 -18 29 0 24 4 28 19 24 11 -3 21 -13 24 -23z"/>
<path d="M3446 734 c-10 -9 -16 -28 -14 -43 2 -20 9 -27 30 -29 25 -3 27 -6
30 -73 3 -65 2 -69 -18 -69 -29 0 -46 -23 -42 -57 l3 -28 99 -3 c111 -3 129 4
124 52 -2 25 -8 32 -30 34 -28 3 -28 4 -28 77 0 66 2 73 18 68 25 -6 44 20 40
54 l-3 28 -96 3 c-80 2 -100 0 -113 -14z"/>
<path d="M3712 738 c-8 -8 -12 -58 -12 -161 l0 -148 48 3 47 3 3 78 3 78 34
-52 c20 -29 35 -64 35 -80 0 -27 3 -29 38 -29 63 0 63 1 60 166 -3 148 -3 149
-27 152 -12 2 -34 1 -48 -3 -24 -6 -25 -9 -21 -56 l5 -50 -49 56 c-51 57 -88
71 -116 43z"/>
<path d="M4031 736 c-8 -9 -11 -60 -9 -157 l3 -144 45 0 45 0 3 58 c2 48 6 58
18 53 9 -3 24 -6 35 -6 16 0 19 -7 19 -56 l0 -55 48 3 47 3 3 77 c3 80 -8 118
-33 118 -19 0 -19 -1 5 51 27 60 25 69 -11 69 -46 0 -64 -14 -88 -70 -12 -28
-26 -48 -31 -45 -6 4 -10 31 -10 61 l0 54 -39 0 c-21 0 -44 -6 -50 -14z"/>
<path d="M4393 739 c-44 -13 -63 -44 -63 -101 0 -61 21 -84 89 -93 72 -10 74
-25 2 -25 -83 0 -91 -5 -91 -52 l0 -40 101 4 c96 3 102 4 125 31 18 21 24 40
24 77 0 67 -14 80 -102 95 -56 9 -46 24 20 27 l57 3 0 40 0 40 -65 2 c-36 1
-79 -3 -97 -8z"/>
</g>
</svg>
